<?xml version="1.0" standalone="no"?>
<!DOCTYPE svg PUBLIC "-//W3C//DTD SVG 20010904//EN"
 "http://www.w3.org/TR/2001/REC-SVG-20010904/DTD/svg10.dtd">
<svg version="1.0" xmlns="http://www.w3.org/2000/svg"
 width="700.000000pt" height="700.000000pt" viewBox="0 0 700.000000 700.000000"
 preserveAspectRatio="xMidYMid meet">
<metadata>
Created by potrace 1.14, written by Peter Selinger 2001-2017
</metadata>
<g transform="translate(0.000000,700.000000) scale(0.100000,-0.100000)"
fill="#000000" stroke="none">
<path d="M574 6985 c-144 -31 -286 -114 -385 -224 -71 -78 -115 -152 -153
-258 l-31 -88 0 -2915 0 -2915 31 -88 c43 -120 86 -188 174 -278 85 -86 178
-145 295 -186 l80 -28 2915 0 2915 0 80 28 c226 79 393 246 472 472 l28 80 0
2915 0 2915 -28 80 c-41 117 -100 210 -186 295 -90 88 -158 131 -278 174 l-88
31 -2890 2 c-2383 1 -2901 -1 -2951 -12z m3391 -880 c380 -62 684 -327 795
-693 12 -39 25 -92 28 -119 9 -56 -1 -54 170 -33 318 38 661 -106 867 -363
352 -439 272 -1079 -177 -1417 -129 -98 -301 -167 -480 -195 -28 -4 -39 -12
-43 -28 -3 -12 -73 -404 -155 -871 -82 -467 -151 -850 -152 -851 -2 -1 -717
125 -1590 279 -1402 247 -1588 282 -1588 297 0 10 68 400 150 867 82 468 150
854 150 859 0 5 -24 20 -53 35 -80 39 -211 143 -275 217 -110 127 -189 279
-229 437 -24 96 -24 352 0 448 90 357 346 625 702 732 83 25 104 28 265 28
213 0 276 -14 455 -104 66 -33 121 -57 123 -52 14 42 92 152 159 222 234 247
554 358 878 305z m-770 -4541 c863 -153 1572 -279 1574 -281 7 -5 -27 -206
-44 -268 -28 -100 -126 -175 -229 -175 -79 0 -2773 478 -2816 500 -56 28 -107
92 -125 154 -15 52 -15 63 4 178 28 166 29 168 48 168 10 0 724 -124 1588
-276z"/>
<path d="M3467 3898 c-16 -64 -298 -1690 -294 -1694 6 -6 237 -47 241 -43 4 5
306 1713 303 1715 -2 2 -232 44 -240 44 -3 0 -7 -10 -10 -22z"/>
<path d="M2646 3549 c-8 -25 -215 -1213 -212 -1216 7 -7 237 -45 242 -40 7 6
214 1173 214 1203 0 19 -10 23 -97 39 -54 9 -108 19 -120 22 -14 3 -24 0 -27
-8z"/>
<path d="M4111 3248 c-6 -29 -53 -298 -106 -598 -52 -300 -97 -553 -99 -562
-3 -14 12 -19 88 -33 50 -9 107 -17 126 -18 l33 -2 108 610 c59 336 107 611
106 611 -1 1 -45 9 -97 18 -52 9 -107 19 -122 22 -25 5 -27 2 -37 -48z"/>
</g>
</svg>
